<?xml version="1.0" encoding="iso-8859-1"?>
<!-- Generator: Adobe Illustrator 16.0.0, SVG Export Plug-In . SVG Version: 6.00 Build 0)  -->
<!DOCTYPE svg PUBLIC "-//W3C//DTD SVG 1.1//EN" "http://www.w3.org/Graphics/SVG/1.1/DTD/svg11.dtd">
<svg version="1.1" id="Capa_1" xmlns="http://www.w3.org/2000/svg" xmlns:xlink="http://www.w3.org/1999/xlink" x="0px" y="0px"
	 width="281.825px" height="281.826px" viewBox="0 0 281.825 281.826" style="enable-background:new 0 0 281.825 281.826;"
	 xml:space="preserve">
<g style="fill:#32BEA6;">
	<g>
		<polygon points="208.845,79.962 201.731,72.849 156.933,108.723 172.964,124.755 		"/>
		<polygon points="79.953,72.982 72.84,80.095 108.717,124.889 124.741,108.86 		"/>
		<path d="M247.212,62.124c2.121-2.827,7.16-20.948,11.338-38.746l-25.107,5.636c-3.994,0.994-10.798,3.467-13.064,5.761
			c-7.45,7.535-7.45,19.803,0.005,27.344C227.559,69.381,240.042,69.381,247.212,62.124z"/>
		<path d="M23.369,23.265l5.635,25.111c0.995,3.987,3.462,10.798,5.761,13.061c7.3,7.221,20.045,7.209,27.35,0.005
			c3.63-3.585,5.63-8.352,5.63-13.423c0-5.068-2-9.83-5.635-13.415C59.293,32.486,41.172,27.449,23.369,23.265z"/>
		<path d="M278.32,245.833c-0.535-3.013-1.906-5.796-3.994-8.074l-87.856-95.476l42.153-52.631c0.179-0.226,0.353-0.446,0.52-0.677
			c1.556,0.184,3.119,0.273,4.694,0.273c10.846,0,21.028-4.268,28.677-12.014c2.609-2.643,8.053-8.144,18.92-57.473
			c1.211-5.428-0.426-11.003-4.362-14.917c-3.01-2.995-7.149-4.703-11.377-4.703c-1.233,0-2.467,0.139-3.532,0.396l-33.791,7.581
			c-4.739,1.189-16.498,4.688-23.286,11.546c-8.567,8.677-12.546,20.643-11.554,32.339c-0.515,0.323-1.008,0.671-1.476,1.047
			l-51.292,41.079L89.637,53.18c-0.214-0.171-0.435-0.336-0.661-0.5c0.183-1.548,0.275-3.107,0.275-4.677
			c0-10.863-4.267-21.06-12.026-28.709c-2.643-2.614-8.152-8.047-57.473-18.911c-1.145-0.252-2.323-0.381-3.488-0.381
			c-4.258,0-8.422,1.729-11.397,4.724c-3.939,3.93-5.556,9.52-4.335,14.927l7.578,33.779c1.183,4.735,4.667,16.492,11.546,23.297
			c7.704,7.606,17.921,11.794,28.779,11.794c1.21,0,2.41-0.053,3.602-0.156c0.312,0.478,0.651,0.95,1.011,1.402l42.048,52.502
			l-87.76,95.372c-2.067,2.257-3.443,5.038-3.976,8.01l-3.086,16.976c-0.971,5.229,0.693,10.585,4.441,14.321
			c3.042,3.05,7.095,4.734,11.412,4.734c1.021,0,2.021-0.094,2.888-0.262l16.963-3.086c3.042-0.547,5.854-1.938,8.074-4.012
			l96.715-88.977l96.852,89.108c2.246,2.073,5.022,3.46,8.037,4.011l17.06,3.103c0.961,0.174,1.885,0.252,2.841,0.252
			c4.309,0,8.362-1.68,11.416-4.741c3.75-3.764,5.407-9.118,4.441-14.273L278.32,245.833z M269.354,269.496
			c-1.013,1.021-2.382,1.576-3.8,1.576c-0.325,0-0.641-0.026-0.966-0.084l-17.008-3.098c-1.004-0.184-1.932-0.646-2.677-1.334
			L140.77,170.745L36.777,266.42c-0.747,0.693-1.672,1.155-2.678,1.333l-17.013,3.098c-0.323,0.062-0.638,0.083-0.961,0.083
			c-1.415,0-2.785-0.556-3.801-1.574c-1.247-1.238-1.806-3.022-1.483-4.76l3.095-17.02c0.179-0.998,0.64-1.927,1.328-2.678
			l95.213-103.492c-0.052-0.283-0.083-0.577-0.088-0.86c-0.03-1.346,0.504-2.622,1.385-3.627c-0.979,0.861-2.21,1.383-3.509,1.383
			c-0.102,0-0.194,0-0.296-0.007c-1.533-0.084-2.945-0.817-3.903-2.008l-42.639-53.24c-1.719-2.139-1.541-5.226,0.394-7.16
			l2.908-2.909c-4.816,3.097-10.428,4.79-16.31,4.79c-8.013,0-15.551-3.092-21.226-8.693c-5.23-5.176-8.134-16.107-8.667-18.247
			l-7.521-33.533c-0.404-1.791,0.14-3.667,1.441-4.966c1.297-1.301,3.166-1.855,4.96-1.456c17.305,3.81,47.096,10.971,52.256,16.066
			c5.693,5.616,8.826,13.099,8.826,21.06c0,5.759-1.687,11.237-4.742,15.966l2-2c1.942-1.945,5.026-2.107,7.161-0.399l53.231,42.639
			c1.194,0.962,1.921,2.375,2.006,3.902c0.076,1.415-0.452,2.759-1.38,3.811c0.952-0.837,2.144-1.359,3.414-1.386
			c0.354-0.082,0.719-0.128,1.089-0.136c1.281,0.044,2.63,0.517,3.641,1.405c-0.942-1.056-1.472-2.405-1.393-3.822
			c0.086-1.527,0.813-2.945,2.01-3.902l53.24-42.639c2.13-1.709,5.218-1.544,7.16,0.398l2.893,2.898
			c-7.424-11.628-6.137-27.345,3.909-37.521c5.183-5.236,16.116-8.139,18.254-8.672l33.533-7.52c1.769-0.42,3.67,0.139,4.971,1.435
			c1.307,1.3,1.853,3.171,1.454,4.967c-3.812,17.299-10.972,47.095-16.063,52.25c-5.623,5.692-13.103,8.827-21.056,8.819
			c-5.753,0-11.238-1.685-15.975-4.741l2.005,2.006c1.938,1.934,2.117,5.021,0.395,7.16l-42.636,53.231
			c-0.966,1.2-2.377,1.927-3.905,2.01c-0.1,0.005-0.198,0.005-0.299,0.005c-1.297,0-2.52-0.52-3.501-1.375
			c0.882,1.005,1.412,2.281,1.376,3.625c0,0.352-0.143,0.655-0.221,0.991l95.359,103.63c0.683,0.745,1.145,1.675,1.324,2.677
			l3.096,17.018C271.16,266.473,270.603,268.249,269.354,269.496z"/>
		<polygon points="140.903,122.91 24.23,251.04 22.799,258.882 30.642,257.449 137.125,159.485 158.146,140.14 		"/>
		<polygon points="163.861,149.474 148.704,163.437 251.023,257.585 258.866,259.014 257.443,251.167 		"/>
	</g>
</g>
<g>
</g>
<g>
</g>
<g>
</g>
<g>
</g>
<g>
</g>
<g>
</g>
<g>
</g>
<g>
</g>
<g>
</g>
<g>
</g>
<g>
</g>
<g>
</g>
<g>
</g>
<g>
</g>
<g>
</g>
</svg>
